<svg width="13" height="14" viewBox="0 0 13 14" fill="none" xmlns="http://www.w3.org/2000/svg">
<path d="M0.600098 1.66664C0.600098 1.29328 0.600098 1.10659 0.666703 0.963982C0.725296 0.838542 0.818784 0.736556 0.93377 0.672636C1.06449 0.599976 1.23562 0.599976 1.57788 0.599976H10.6223C10.9646 0.599976 11.1357 0.599976 11.2664 0.672636C11.3814 0.736556 11.4749 0.838542 11.5335 0.963982C11.6001 1.10659 11.6001 1.29328 11.6001 1.66664V2.82482C11.6001 2.98788 11.6001 3.0694 11.5832 3.14613C11.5683 3.21416 11.5436 3.27918 11.51 3.33883C11.4723 3.40611 11.4194 3.46376 11.3137 3.57906L7.60869 7.62091C7.50303 7.73618 7.45016 7.79384 7.4124 7.86111C7.37885 7.92078 7.35416 7.98578 7.33919 8.05384C7.32232 8.13058 7.32232 8.21211 7.32232 8.37511V9.93331L4.87788 12.6V8.37511C4.87788 8.21211 4.87788 8.13058 4.86099 8.05384C4.84602 7.98578 4.82133 7.92078 4.78782 7.86111C4.75003 7.79384 4.69718 7.73618 4.59149 7.62091L0.886483 3.57906C0.780791 3.46376 0.727942 3.40611 0.690151 3.33883C0.656644 3.27918 0.631955 3.21416 0.616983 3.14613C0.600098 3.0694 0.600098 2.98788 0.600098 2.82482V1.66664Z" stroke="black" stroke-width="1.2" stroke-linecap="round" stroke-linejoin="round"/>
</svg>
