<svg width="12" height="15" viewBox="0 0 12 15" fill="none" xmlns="http://www.w3.org/2000/svg">
<path fill-rule="evenodd" clip-rule="evenodd" d="M5.75 7.03125C4.95602 7.03125 4.3125 6.40172 4.3125 5.625C4.3125 4.84828 4.95602 4.21875 5.75 4.21875C6.54398 4.21875 7.1875 4.84828 7.1875 5.625C7.1875 6.40172 6.54398 7.03125 5.75 7.03125ZM5.75 3.28125C4.42702 3.28125 3.35417 4.33031 3.35417 5.625C3.35417 6.91969 4.42702 7.96875 5.75 7.96875C7.07298 7.96875 8.14583 6.91969 8.14583 5.625C8.14583 4.33031 7.07298 3.28125 5.75 3.28125ZM5.75 13.5937C4.95315 13.598 0.958333 7.58484 0.958333 5.625C0.958333 3.03656 3.10356 0.9375 5.75 0.9375C8.39644 0.9375 10.5417 3.03656 10.5417 5.625C10.5417 7.55859 6.5344 13.598 5.75 13.5937ZM5.75 0C2.57456 0 0 2.51859 0 5.625C0 7.97719 4.79406 15.0052 5.75 15C6.69108 15.0052 11.5 7.94531 11.5 5.625C11.5 2.51859 8.92544 0 5.75 0Z" fill="black" fill-opacity="0.67"/>
</svg>
